Patient4_TMGait_0pt5_01_right_06_EMG.mot
version=1
nRows=37
nColumns=33
inDegrees=no
endheader
time	1LAddLong	2LGlutMax	3LGlutMed	4LIliopsoas	5LSemiMemb	6LBicFemLong	7LRecFem	8LVastMed	9LVastLat	10LGasMed	11LTibAnt	12lTibPost	13LPeroneusLong	14LSol	15LExtDigLong	16LFlexDigLong	17RAddLong	18RGlutMax	19RGlutMed	20RIliopsoas	21RSemiMemb	22RBicFemLong	23RRecFem	24RVastMed	25RVastLat	26RGasMed	27RTibAnt	28RTibPost	29RPeroneusLong	30RSol	31RExtDigLong	32RFlexDigLong
7.79	-0.011292	-0.23621	0.18249	-0.006409	0.004272	0.016479	-0.024567	0.001068	0.081177	-0.062256	-0.071411	-0.002136	0.020599	-0.046234	0.32867	-0.086517	0.030212	0.20142	1.6499	-0.057983	-0.055542	0.063782	0.21179	-0.14343	-0.11841	0.014191	0.55679	0.028076	0.61233	0.16052	-0.005798	-0.020447
7.791	-0.011749	-0.31632	0.13473	0.006714	0.000153	0.021667	0.00885	0.00351	0.10315	-0.034943	-0.11688	0.002289	-0.088959	0.086975	0.46219	-0.091705	-0.018616	0.075378	0.94803	0.1413	-0.039368	0.04303	0.037689	-0.13596	-0.010223	0.045319	0.52948	0.27023	0.43961	0.83328	-0.002594	0.000153
7.792	-0.009003	-0.31738	0.10422	0.019531	-0.000153	0.024567	0.081329	-0.007172	0.10452	0.023193	-0.11597	0.007019	-0.16907	0.051422	0.41138	-0.12833	-0.085144	-0.024261	0.59692	0.27695	0.26794	-0.047607	-0.16525	-0.019379	0.032959	0.075073	0.32501	0.10742	0.21606	2.0071	-0.003967	0.017395
7.793	-0.004578	-0.34653	0.087128	-0.001221	0.010529	0.017395	0.11063	-0.001984	0.072632	0.014496	-0.016937	0.011597	-0.16357	-0.009155	0.16434	-0.1181	-0.047607	-0.15854	0.36163	0.15533	0.052795	-0.043488	-0.10788	0.01358	0.077362	0.03479	-0.49011	-0.39047	-0.016632	1.4484	-0.005341	0.007782
7.794	-0.003357	-0.34439	0.073547	0.011292	-0.00061	0.027161	0.15305	0.009918	0.081787	-0.018616	0.007477	0.007782	-0.14465	0.010529	-0.60883	-0.12146	0.003204	-0.28259	0.1033	0.053558	-0.054016	-0.15671	0.015717	-0.00412	0.071106	0.010223	-1.2614	0.46646	0.13428	0.49835	-0.007629	0.007782
7.795	-0.00824	-0.29282	0.083771	0.017242	-0.001984	0.012665	0.15228	-0.062866	0.081482	0.003967	0.001526	0.008698	-0.12222	-0.038147	-0.48202	-0.13977	0.028839	-0.16617	-0.39749	-0.067139	-0.012817	-0.24841	0.023651	0.089111	0.087128	0.014038	-1.1487	0.45181	0.34424	-0.62225	0.000305	-0.009003
7.796	-0.010071	-0.28946	0.067749	0.017548	-0.049133	0.003967	0.19714	-0.000458	0.072632	-0.006256	0.22705	0.000153	-0.10834	-0.050354	-0.013123	-0.1564	0.008698	-0.030212	-1.0582	0.001221	-0.059509	-0.23636	0.014191	0.014191	0.03479	0.027161	-0.78323	0.13855	0.15961	-1.4557	-0.001678	-0.009003
7.797	0.003357	-0.31326	0.022888	0.013733	0.001984	0.01297	0.21606	-0.001678	0.075378	-0.012054	0.46432	0.003967	-0.11307	-0.16602	0.001984	-0.14008	-0.001068	-0.10529	-0.81879	0.012665	-0.22034	-0.23865	0.046997	-0.06424	0.022125	0.036621	-0.27832	-0.001984	-0.14755	-1.1893	-0.00412	-0.016632
7.798	0.006256	-0.33341	0.032043	0.013275	0.006104	-0.001373	0.23193	-0.003204	0.079498	-0.013885	0.17502	-0.001831	-0.081482	-0.13962	-0.053406	-0.13886	0.011597	-0.32806	-0.62851	-0.013885	-0.47775	-0.15884	-0.006409	0.033417	0.028839	0.053101	0.63843	-0.026398	0.29984	-0.46845	0.001678	-0.014343
7.799	0.000763	-0.38544	0.010071	0.031586	0.004272	-0.017242	0.22461	-0.001221	0.077667	-0.019226	-0.052032	-0.000458	-0.048828	0.12116	0.16571	-0.14481	0.016174	-0.64651	-0.33188	0.01297	-0.39337	0.016937	0.038757	0.032654	0.01709	0.020294	0.61523	0.001831	0.69061	0.34393	0.003052	-0.022583
7.8	0.000763	-0.33173	-0.008545	0.00061	0.006866	-0.000305	0.1593	-0.001526	0.096283	-0.00885	-0.10147	0.00412	-0.030518	0.22812	-0.14252	-0.13596	-0.030823	-0.69748	-0.028992	0.029755	-0.12512	0.15457	0.036774	0.15625	0.047455	-0.029755	0.14236	-0.12054	0.55435	0.55466	-0.000916	-0.01709
7.801	-0.008392	-0.27237	-0.014648	-0.010681	-0.003967	-0.01236	0.073395	0.002289	0.10452	-0.013275	-0.18585	-0.000763	0.031891	0.094604	-0.095825	-0.12482	-0.078278	-0.5069	-0.015564	-0.026703	0.28427	0.10101	0.013275	0.19394	0.066986	-0.072327	-0.21011	-0.70572	0.4248	0.16007	0	-0.012512
7.802	-0.014954	-0.27741	-0.00351	0.007782	0.007172	-0.011292	0.057983	-0.008545	0.10407	-0.010529	0.11093	-0.002136	0.059357	0.004272	0.15213	-0.11398	-0.055389	-0.45883	-0.10666	-0.053406	0.2066	0.11093	0.062866	0.15198	0.027771	-0.06134	-0.51422	-0.060883	0.19608	-0.46432	-0.004578	-0.009766
7.803	-0.016327	-0.27329	-0.024414	-0.00473	0.00824	-0.01236	0.005188	-0.002594	0.10971	0.011292	0.44083	-0.003967	-0.014496	-0.032349	0.21042	-0.12436	-0.024109	-0.62561	-0.9021	0.008698	0.15152	0.10117	0.13229	0.096741	0.011749	-0.15686	-0.31632	-0.088348	0.033875	-0.55557	-0.00061	-0.0177
7.804	-0.00885	-0.25681	-0.018158	-0.0177	0.005646	-0.014191	-0.065002	-0.003662	0.11887	0.020142	0.59982	0.005035	-0.13184	-0.12436	0.53131	-0.1033	-0.003052	-0.86502	-2.214	0.066528	0.1059	0.11597	0.15457	0.000763	-0.007477	-0.1709	-0.17242	0.20325	0.37354	0.94803	-0.001221	-0.021362
7.805	-0.006866	-0.1918	-0.037537	-0.018921	0.009613	-0.017395	-0.12665	-0.005798	0.12054	-0.034943	0.21347	0.000458	-0.068207	-0.11826	0.93094	-0.10315	0.01236	-0.83008	-1.7833	-0.062866	0.083771	0.1033	0.22888	-0.039063	0.004883	0.005798	0.15366	0.14236	0.29266	2.5647	0.001373	-0.016785
7.806	-0.005035	-0.14328	-0.046234	-0.025635	0.008698	-0.031128	-0.11246	-0.008392	0.14496	-0.056458	-0.24033	-0.007477	-0.029144	0.025482	1.3133	-0.098267	0.004425	-0.77606	-0.68161	-0.086517	0.018311	0.034332	0.39093	-0.053711	-0.040283	0.075531	0.29175	-0.018311	0.28503	2.8412	-0.003815	-0.027466
7.807	-0.005341	-0.11673	-0.040131	0.016785	0.008087	-0.021362	-0.12421	-0.014801	0.1442	-0.097046	-0.65521	-0.001526	0.11063	0.13504	-0.18646	-0.075073	0.001221	-0.78919	-0.31357	-0.017548	-0.31662	-0.080261	0.46555	-0.008087	-0.074921	0.046539	0.06958	0.015564	0.35538	2.2626	-0.012512	-0.014648
7.808	-0.002136	-0.08255	-0.015259	0.018463	0.002899	-0.009613	-0.063629	-0.010681	0.14847	-0.062408	-0.41275	-0.007477	0.021362	0.17349	-0.66925	-0.06546	0.014496	-1.0963	-0.20416	-0.016327	-0.056305	-0.28854	0.45761	-0.077057	-0.10864	0.071869	-0.14252	-0.29159	0.4361	1.3898	-0.009003	-0.01236
7.809	-0.005646	-0.093842	-0.036011	0.041504	0.003815	-0.019531	0.024261	-0.025787	0.15472	-0.04364	-0.34897	-0.011444	-0.098267	0.22079	-0.50186	-0.067139	0.016937	-1.1795	0.051117	-0.027313	0.07309	-0.26352	0.17624	-0.13138	-0.11871	0.04425	-0.2681	0.043793	0.088654	1.526	-0.004883	-0.013885
7.81	-0.000763	-0.045166	-0.071869	0.019836	0.010986	-0.01358	0.02594	-0.018158	0.14282	-0.036011	-0.42236	-0.007477	-0.10315	0.24002	-0.48569	-0.058136	0.032654	-1.143	0.28061	-0.034943	0.030823	-0.17609	-0.1207	-0.22781	-0.10925	0.070648	-0.83176	0.19073	0.014191	0.44037	-0.00412	-0.013733
7.811	0.006866	-0.044403	-0.11093	-0.008392	0.000305	-0.019989	0.008545	-0.020905	0.1384	-0.023956	-0.21576	-0.027161	-0.10605	0.11231	-0.51453	-0.057526	0.041504	-1.1264	0.58746	-0.029297	-0.09552	-0.27786	-0.2739	-0.41489	-0.054016	-0.024414	-0.17319	0.077057	-0.13702	-0.91431	-0.00061	-0.010223
7.812	-0.004272	-0.022125	-0.14832	0	0.003204	-0.018158	0.009766	-0.029755	0.12772	-0.007477	0.1091	-0.015717	-0.14008	0.049744	-0.38254	-0.041809	0.044861	-1.143	0.35736	0.018311	-0.13489	-0.37293	-0.38498	-0.3212	-0.033112	-0.18478	0.62546	0.051727	-0.40466	-0.89493	0.000153	-0.016632
7.813	-0.003662	0.027008	-0.10757	0.023193	0.014191	-0.021057	0.024719	-0.028381	0.13245	-0.001373	0.033417	-0.002594	-0.12314	0.020294	-0.28549	-0.046539	0.003967	-1.0902	0.14999	0.023956	-0.39688	-0.31815	-0.26321	-0.039215	-0.002594	-0.13992	0.41138	0.092926	-0.48904	-0.79407	-0.003815	-0.032349
7.814	-0.002289	0.0737	-0.11795	0.059357	0.007935	-0.025024	0.037537	-0.032654	0.12711	-0.000763	-0.093231	-0.001526	-0.054474	0.036621	-0.082245	-0.068817	-0.04837	-1.0486	0.33432	0.028992	-0.2536	-0.25894	0.009155	0.004578	-0.040894	-0.045776	0.31158	0.03006	-0.49484	-1.041	-0.002594	-0.021362
7.815	-0.006256	0.095978	-0.18524	0.059357	0.005798	-0.00946	0.046539	-0.024872	0.1294	-0.002441	-0.12192	-0.006714	0.046234	0.074005	-0.17532	-0.082855	-0.015564	-0.93536	0.79498	-0.008087	-0.20676	-0.24277	0.13123	-0.044556	-0.14282	0.028076	0.48966	-0.03952	-0.27695	-1.4413	0.003967	-0.027618
7.816	0.000153	0.13153	-0.15152	0.020752	0.007477	-0.013733	0.055542	-0.021515	0.12054	0.03952	-0.041046	-0.008698	-0.039978	-0.046844	-0.091248	-0.077362	0.003052	-0.94528	0.85663	-0.028687	-0.19852	-0.21805	-0.003662	0.075684	-0.09201	-0.007935	0.40237	-0.38025	-0.073242	-1.0646	-0.001221	-0.026855
7.817	-0.001831	0.1532	-0.15671	-0.004883	0.009308	0.005035	0.080109	-0.017548	0.11643	0.034332	0.16037	0	-0.09079	-0.057373	0.16235	-0.086975	-0.001068	-1.002	0.39948	-0.037537	-0.14343	-0.15335	-0.10834	0.2005	0.09079	-0.014801	-1.3464	0.21271	0.40848	-0.22385	-0.001373	-0.02655
7.818	-0.007935	0.16113	-0.16663	-0.017548	0.00824	-0.012665	0.041046	-0.022125	0.11139	0.011749	0.18723	-0.011139	0.00412	-0.029144	0.32288	-0.086823	0.007629	-1.0509	-0.17212	-0.006256	0.2623	0.007172	-0.11093	0.19684	0.13748	-0.013733	-1.8866	0.054932	0.59555	0.21881	-0.001526	-0.018158
7.819	-0.003357	0.19455	-0.16892	-0.016174	0.00473	-0.009003	0.006561	-0.006104	0.11536	0.037384	0.12116	-0.004578	0.055389	-0.096741	0.20859	-0.093079	0.013885	-0.89645	-0.040436	0.037842	0.495	0.15167	0.03418	0.093994	0.069122	-0.014648	-1.4005	-0.020294	0.25589	0.20462	0.001984	-0.015259
7.82	-0.006561	0.19562	-0.16083	-0.026093	0.00885	-0.004578	-0.005646	-0.006714	0.11032	0.04715	0.027771	-0.00824	0.037842	-0.20126	-0.031738	-0.083008	-0.02243	-0.76157	-0.018921	0.07843	0.39246	0.23361	0.084076	0.10605	0.028381	0.010529	-0.070801	0.013733	-0.075989	0.062103	-0.00061	-0.018921
7.821	-0.002747	0.22705	-0.16174	-0.006409	0.007782	-0.000305	-0.039825	-0.000916	0.10544	0.061951	0.065002	0.00473	-0.062103	-0.31113	-0.15595	-0.078735	-0.029907	-0.67993	0.112	0.053253	0.23086	0.21591	0.12497	0.11139	0.061035	0.065002	0.80475	-0.08728	-0.13092	-0.1152	-0.000458	-0.005493
7.822	-0.006409	0.23575	-0.1503	-0.001221	0.006256	-0.000916	-0.080872	-0.000305	0.10407	0.031738	0.023651	-0.010681	-0.052948	-0.14084	-0.16907	-0.09491	-0.033112	-0.68832	0.15274	-0.023041	-0.083313	0.33432	0.15243	0.041809	0.036163	0.09964	0.91614	-0.081177	-0.016174	-0.29877	-0.003662	-0.010529
7.823	-0.005951	0.22492	-0.12985	-0.007324	0.029449	0	-0.092621	0.006409	0.11322	0.033722	-0.046387	-0.008698	-0.051727	0.072937	-0.23834	-0.075226	-0.07843	-0.59036	0.20447	-0.045319	-0.42602	0.61996	-0.018463	0.06958	0.068359	0.067749	0.78384	-0.043793	-0.007019	-0.53818	-0.002136	-0.010681
7.824	-0.002747	0.23621	-0.16281	0.007935	-0.00061	0.001678	-0.11169	0.000458	0.10376	0.055237	-0.078278	-0.006104	-0.058899	0.028839	-0.21103	-0.061646	-0.075378	-0.53513	0.030365	-0.093994	-0.20615	0.62317	0.064087	0.033875	0.066986	0.033112	0.56839	0.010223	-0.4007	-0.5452	-0.002289	-0.013428
7.825	0.000305	0.19699	-0.17166	0.002899	0.019684	-0.009003	-0.16281	0.003815	0.088806	0.06134	-0.064545	0.006409	-0.067444	-0.028076	-0.06012	-0.041199	-0.040894	-0.42831	-0.10361	-0.064697	0.088806	0.31479	0.15015	0.10605	0.045319	0.014038	0.11734	0.015106	-0.54367	-0.48019	-0.005188	-0.011597
7.826	-0.005493	0.21561	-0.17929	0.019684	0.009308	-0.036316	-0.083466	0.001373	0.072632	0.069275	0.043793	0.00351	-0.10223	-0.00061	0.45319	-0.027924	-0.024719	-0.2832	-0.054779	0.003204	0.35141	-0.063934	0.15121	0.15137	0.068207	0.032349	-0.084534	-0.02182	-0.37888	-0.11261	-0.001984	-0.006866
